HIERARCHY
ROOT Hips
{
  OFFSET -10.5418 79.71 204.814
  CHANNELS 6 Xposition Yposition Zposition Zrotation Xrotation Yrotation
  JOINT Spine
  {
    OFFSET 0 10 0
    CHANNELS 6 Xposition Yposition Zposition Zrotation Xrotation Yrotation
    JOINT Neck
    {
      OFFSET 0 30 0
      CHANNELS 6 Xposition Yposition Zposition Zrotation Xrotation Yrotation
      JOINT Head
      {
        OFFSET 0 8 0
        CHANNELS 6 Xposition Yposition Zposition Zrotation Xrotation Yrotation
        End Site
        {
          OFFSET 0 10 0
        }
      }
    }
    JOINT LeftArm
    {
      OFFSET 15 30 0
      CHANNELS 6 Xposition Yposition Zposition Zrotation Xrotation Yrotation
      JOINT LeftForeArm
      {
        OFFSET 25 0 0
        CHANNELS 6 Xposition Yposition Zposition Zrotation Xrotation Yrotation
        JOINT LeftHand
        {
          OFFSET 25 0 0
          CHANNELS 6 Xposition Yposition Zposition Zrotation Xrotation Yrotation
          End Site
          {
            OFFSET 10 0 0
          }
        }
      }
    }
    JOINT RightArm
    {
      OFFSET -15 30 0
      CHANNELS 6 Xposition Yposition Zposition Zrotation Xrotation Yrotation
      JOINT RightForeArm
      {
        OFFSET -25 0 0
        CHANNELS 6 Xposition Yposition Zposition Zrotation Xrotation Yrotation
        JOINT RightHand
        {
          OFFSET -25 0 0
          CHANNELS 6 Xposition Yposition Zposition Zrotation Xrotation Yrotation
          End Site
          {
            OFFSET -10 0 0
          }
        }
      }
    }
  }
  JOINT LeftUpLeg
  {
    OFFSET 10 -10 0
    CHANNELS 6 Xposition Yposition Zposition Zrotation Xrotation Yrotation
    JOINT LeftLeg
    {
      OFFSET 0 -35 0
      CHANNELS 6 Xposition Yposition Zposition Zrotation Xrotation Yrotation
      JOINT LeftFoot
      {
        OFFSET 0 -40 0
        CHANNELS 6 Xposition Yposition Zposition Zrotation Xrotation Yrotation
        End Site
        {
          OFFSET 0 0 15
        }
      }
    }
  }
  JOINT RightUpLeg
  {
    OFFSET -10 -10 0
    CHANNELS 6 Xposition Yposition Zposition Zrotation Xrotation Yrotation
    JOINT RightLeg
    {
      OFFSET 0 -35 0
      CHANNELS 6 Xposition Yposition Zposition Zrotation Xrotation Yrotation
      JOINT RightFoot
      {
        OFFSET 0 -40 0
        CHANNELS 6 Xposition Yposition Zposition Zrotation Xrotation Yrotation
        End Site
        {
          OFFSET 0 0 15
        }
      }
    }
  }
}
MOTION
Frames:	8
Frame Time:	0.0333333
-32.6844 83.9769 -135.275 11.4436 -14.0085 -133.824 0 10 0 0.287705 -19.8394 3.63938 0 30 0 14.4602 1.95403 15.1171 -1.42109e-14 8 1.42109e-14 -24.0432 9.48907 25.9039 15 30 1.42109e-14 -38.1807 55.435 -29.7788 25 0 0 25.0231 -11.0505 -47.107 25 0 1.42109e-14 3.00819e-05 -64.2821 3.33894e-05 -15 30 0 54.2574 37.3934 18.66 -25 5.68434e-14 0 -24.8309 -10.8491 46.6656 -25 0 1.42109e-14 -5.43819e-06 -33.5051 -1.44803e-05 10 -10 -1.42109e-14 -7.63397 -32.6374 -30.857 -7.10543e-15 -35 0 0.201244 33.6324 -0.665271 0 -40 0 -0.156931 -0.817478 -16.8445 -10 -10 -1.42109e-14 -1.67653 -43.5324 41.4349 0 -35 7.10543e-15 -0.27985 39.1933 0.810413 2.84217e-14 -40 7.10543e-15 0.569831 -1.67069 33.1922 
-32.0251 83.8062 -136.812 12.5334 -12.3819 -128.532 -1.42109e-14 10 0 1.2633 -20.0388 4.43254 0 30 2.84217e-14 14.7279 4.44553 16.4122 1.42109e-14 8 0 -24.799 7.06607 28.1877 15 30 0 -37.2495 56.1477 -31.1735 25 0 1.42109e-14 24.8964 -10.9174 -46.8158 25 0 0 3.01876e-05 -64.3606 3.34847e-05 -15 30 1.42109e-14 54.9714 36.8951 17.5568 -25 0 -1.77636e-15 -24.6221 -10.6332 46.1887 -25 0 -1.42109e-14 -5.27778e-06 -32.9726 -1.43923e-05 10 -10 0 -6.59347 -32.8237 -33.3945 0 -35 0 0.205629 33.9543 -0.673508 7.10543e-15 -40 0 -0.385829 -1.69949 -18.2546 -10 -10 -1.42109e-14 -2.55165 -40.829 35.4634 0 -35 7.10543e-15 -0.291987 38.7369 0.802616 0 -40 -7.10543e-15 1.80667 -6.08619 29.9527 
-31.1779 83.9009 -138.331 13.572 -10.8022 -123.618 0 10 -1.42109e-14 2.04234 -20.2325 5.34508 0 30 -1.42109e-14 15.1816 6.75914 17.7415 -2.84217e-14 8 7.10543e-15 -25.5183 4.94086 30.6111 15 30 0 -36.2242 56.6153 -31.9724 25 0 -1.42109e-14 24.9803 -11.0055 -47.0086 25 -1.42109e-14 0 3.05537e-05 -64.629 3.38151e-05 -15 30 -2.84217e-14 55.8158 36.2392 16.7521 -25 0 0 -24.374 -10.3817 45.6271 -25 -2.84217e-14 -1.42109e-14 -5.09948e-06 -32.3731 -1.42961e-05 10 -10 -1.42109e-14 -4.94507 -32.8778 -35.4229 0 -35 0 0.192293 33.01 -0.649788 0 -40 0 -0.444993 -1.79571 -19.5009 -10 -10 0 -1.38834 -38.1816 33.2529 -2.84217e-14 -35 0 -0.272179 38.4166 0.793017 0 -40 0 1.57958 -9.29466 22.8306 
-30.1109 84.0644 -139.846 14.8941 -9.39958 -119.25 -2.84217e-14 10 0 2.82593 -20.4896 6.55345 -4.26326e-14 30 0 15.0667 8.13282 19.0197 -1.42109e-14 8 0 -25.4564 3.32984 32.7088 15 30 0 -36.1157 56.4255 -32.2023 25 1.42109e-14 -1.42109e-14 24.9988 -11.0251 -47.0516 25 0 1.42109e-14 3.02489e-05 -64.4059 3.354e-05 -15 30 0 57.3858 35.0164 15.9547 -25 2.84217e-14 -1.06581e-14 -24.2162 -10.2238 45.2718 -25 0 -1.42109e-14 -4.79428e-06 -31.3282 -1.4135e-05 10 -10 -1.42109e-14 -3.05686 -33.7121 -36.8634 7.10543e-15 -35 0 0.184323 31.9933 -0.62492 0 -40 1.42109e-14 -0.347547 -1.38086 -20.0995 -10 -10 0 2.24908 -36.7628 35.9593 0 -35 0 -0.311175 39.5213 0.825506 0 -40 1.77636e-15 0.308226 -9.08534 15.0086 
-28.9785 84.2104 -141.291 16.3713 -8.51531 -115.187 0 10 -7.10543e-15 3.17411 -21.077 8.06523 0 30 0 14.9339 9.35549 20.0357 0 8 0 -25.548 1.4081 33.938 15 30 0 -36.9649 55.9852 -31.6359 25 -1.42109e-14 -1.42109e-14 24.9938 -11.0198 -47.0401 25 0 -1.42109e-14 2.93888e-05 -63.7562 3.27664e-05 -15 30 0 59.3618 33.704 14.6382 -25 0 0 -24.3428 -10.3503 45.5566 -25 0 0 -4.71167e-06 -31.0413 -1.40923e-05 10 -10 7.10543e-15 -1.83491 -35.3155 -37.9941 7.10543e-15 -35 0 0.161021 31.149 -0.60432 0 -40 0 -0.106968 -0.50875 -20.1878 -10 -10 7.10543e-15 5.51238 -36.4786 38.1191 2.84217e-14 -35 -3.55271e-15 -0.317435 40.6752 0.859456 0 -40 1.77636e-15 -0.716872 -7.84348 7.83062 
-27.8322 84.4982 -142.574 17.3968 -8.22783 -110.404 -1.42109e-14 10 0 2.1532 -21.2476 8.51293 1.42109e-14 30 0 14.3552 9.47203 20.675 2.84217e-14 8 0 -24.952 -0.125955 34.5493 15 30 0 -37.3812 55.4194 -31.0516 25 0 0 25.1199 -11.1531 -47.3308 25 0 0 2.84108e-05 -62.9792 3.18921e-05 -15 30 0 61.0702 32.4835 13.4156 -25 -2.84217e-14 -1.06581e-14 -24.6466 -10.6586 46.2449 -25 0 -1.42109e-14 -4.67234e-06 -30.9041 -1.4072e-05 10 -10 0 -1.51865 -36.5122 -38.1711 0 -35 0 0.155783 28.7808 -0.54968 7.10543e-15 -40 0 0.507389 1.54206 -21.504 -10 -10 0 6.17214 -36.5175 37.5079 0 -35 -7.10543e-15 -0.329648 41.3053 0.878343 2.84217e-14 -40 7.10543e-15 -1.14468 -7.0609 3.89592 
-26.7372 84.8604 -143.547 18.3551 -7.57578 -104.689 1.42109e-14 10 -3.55271e-15 1.50514 -21.0552 8.10158 -2.84217e-14 30 0 13.7129 9.10146 20.6778 1.42109e-14 8 -3.55271e-15 -25.3052 -1.12578 34.4108 15 30 -7.10543e-15 -37.9615 54.8688 -30.709 25 0 0 25.295 -11.3409 -47.7372 25 2.84217e-14 2.84217e-14 2.84884e-05 -63.0424 3.19612e-05 -15 30 -1.42109e-14 61.7941 31.3867 12.5691 -25 0 0 -24.982 -11.0072 47.0125 -25 0 -1.42109e-14 -4.82241e-06 -31.4255 -1.41497e-05 10 -10 -3.55271e-15 -1.80648 -37.4717 -38.1712 1.42109e-14 -35 0 0.111248 25.9831 -0.487386 -7.10543e-15 -40 0 1.41369 4.46902 -21.7841 -10 -10 -7.10543e-15 5.06152 -36.6976 33.6911 0 -35 0 -0.329563 41.1285 0.873451 2.84217e-14 -40 -3.55271e-15 -1.29875 -6.71842 2.20191 
-25.6804 85.1676 -144.275 19.4857 -5.73472 -99.0708 -2.84217e-14 10 -3.55271e-15 2.62023 -21.0168 7.51048 0 30 0 12.6397 8.70778 20.2749 4.26326e-14 8 3.55271e-15 -25.435 -1.45085 33.9165 15 30 0 -39.5679 54.4614 -29.7417 25 -7.10543e-15 0 25.451 -11.5104 -48.1019 25 0 0 2.90271e-05 -63.4737 3.24423e-05 -15 30 0 61.2675 31.2013 12.2754 -25 0 1.42109e-14 -25.2146 -11.2545 47.5505 -25 2.84217e-14 0 -4.90564e-06 -31.7122 -1.41932e-05 10 -10 0 -1.64989 -38.8937 -36.5736 -1.42109e-14 -35 2.84217e-14 0.0994917 24.5446 -0.456716 -7.10543e-15 -40 0 2.02527 7.4406 -19.7789 -10 -10 0 4.47114 -36.6972 29.0219 2.84217e-14 -35 0 -0.307389 39.9571 0.838048 0 -40 -3.55271e-15 -1.28202 -5.99198 1.10275 
